<svg width="90" height="32" viewBox="0 0 90 32" fill="none" xmlns="http://www.w3.org/2000/svg">
<path d="M34.9365 23.7194V17.7565H42.7508V15.5585H34.9365V10.2503H43.2842V8.05227H34.751C33.151 8.05227 32.5713 8.8707 32.5713 10.2036V23.7194H34.9365Z" fill="#16023E"/>
<path d="M49.2873 24C51.1424 24 52.6496 23.1114 53.5075 21.7084V23.7194H55.6872V17.967C55.6872 14.553 53.067 11.9807 49.6351 11.9807C46.1801 11.9807 43.5831 14.6933 43.5831 17.967C43.5831 21.2875 45.9946 24 49.2873 24ZM49.6351 21.8019C47.525 21.8019 45.8787 20.0715 45.8787 17.9904C45.8787 15.8858 47.525 14.1554 49.6351 14.1554C51.7684 14.1554 53.3916 15.8858 53.3916 17.9904C53.3916 20.0715 51.7684 21.8019 49.6351 21.8019Z" fill="#16023E"/>
<path d="M63.6363 24C67.0682 24 69.6652 21.3109 69.6652 18.0138C69.6652 14.5296 67.1841 11.9807 63.7291 11.9807C62.1987 11.9807 60.8074 12.6589 59.8799 13.6878V7H57.5843V18.0138C57.5843 21.4044 60.2045 24 63.6363 24ZM63.6363 21.8253C61.5031 21.8253 59.8799 20.0949 59.8799 17.9904C59.8799 15.9092 61.5031 14.1788 63.6363 14.1788C65.7465 14.1788 67.3696 15.9092 67.3696 17.9904C67.3696 20.0949 65.7465 21.8253 63.6363 21.8253Z" fill="#16023E"/>
<path d="M71.3304 7V23.7194H73.626V7H71.3304Z" fill="#16023E"/>
<path d="M81.2844 23.9766C83.5105 23.9766 85.3423 22.9243 86.3394 20.9601L84.5771 20.0481C83.9047 21.3109 82.6525 21.9188 81.2612 21.9188C79.2207 21.9188 77.7367 20.5392 77.4816 18.575H86.5713V17.6396C86.5713 14.436 84.438 11.934 81.0062 11.934C77.5975 11.934 75.2555 14.6231 75.2555 17.9202C75.2555 21.4512 77.8294 23.9766 81.2844 23.9766ZM77.5743 17.0784C77.8062 15.3714 79.0584 14.0151 80.983 14.0151C82.8612 14.0151 84.1829 15.2545 84.2757 17.0784H77.5743Z" fill="#16023E"/>
<path d="M19.0023 19.683L20.1322 18.5708H16.1489C15.1329 18.5708 14.1577 18.9703 13.4336 19.683H19.0023Z" fill="#16023E"/>
<path d="M6.9252 18.2532L19.0596 6.30854C20.9158 4.48133 23.9254 4.48133 25.7816 6.30854C27.6378 8.13575 27.6378 11.0982 25.7816 12.9254L22.115 16.5347L18.1313 16.5347C16.3626 16.5347 14.6664 17.2263 13.4158 18.4573L11.5493 20.2946L6.9252 24.8465C5.07558 23.0258 5.07558 20.0738 6.9252 18.2532Z" fill="#16023E"/>
<path d="M8.41992 24.8764L11.323 22.0187C11.8403 21.5095 12.5371 21.2241 13.2629 21.2241H17.3853L15.693 22.8899C14.3998 24.1629 12.6579 24.8764 10.8432 24.8764L8.41992 24.8764Z" fill="#16023E"/>
<path d="M3.42871 28.2631L6.93663 24.8101H8.48822L4.98029 28.2631H3.42871Z" fill="#16023E"/>
</svg>
